<svg width="133" height="52" viewBox="0 0 133 52" fill="none" xmlns="http://www.w3.org/2000/svg">
<path d="M6.744 14.2C9.544 14.2 11.4 14.6 12.312 15.4C13.144 16.12 13.56 17.232 13.56 18.736C13.56 21.072 12.344 22.664 9.912 23.512L13.368 28.72L15.432 28.936C15.432 29.624 15.248 30.312 14.88 31H11.4L6.696 23.824H5.928L5.856 28.72L7.608 28.912C7.608 29.568 7.424 30.264 7.056 31H1.128L0.912 29.68C1.872 29.296 2.544 29.064 2.928 28.984C2.896 27.016 2.856 24.64 2.808 21.856C2.76 19.072 2.728 17.208 2.712 16.264L0.72 15.664C0.736 15.296 0.808 14.808 0.936 14.2H6.744ZM8.64 16.768C8.144 16.656 7.48 16.6 6.648 16.6H5.976C5.944 18.808 5.928 20.464 5.928 21.568L7.104 21.544C8.048 21.528 8.792 21.336 9.336 20.968C9.896 20.584 10.176 19.848 10.176 18.76C10.176 17.672 9.664 17.008 8.64 16.768ZM27.966 18.712C28.27 18.712 28.462 18.72 28.542 18.736C28.542 19.552 28.406 20.256 28.134 20.848C28.038 24.368 27.958 26.968 27.894 28.648C28.614 28.712 29.246 28.832 29.79 29.008L29.742 30.688C28.766 30.992 27.926 31.144 27.222 31.144C26.518 31.144 26.038 31.128 25.782 31.096C25.59 30.712 25.43 30.328 25.302 29.944C23.974 30.84 23.014 31.288 22.422 31.288C19.558 31.288 18.126 29.84 18.126 26.944C18.126 26.16 18.19 24.232 18.318 21.16C17.47 21.16 16.694 21.048 15.99 20.824C15.99 20.424 16.046 19.848 16.158 19.096C17.102 18.84 18.718 18.712 21.006 18.712C21.31 18.712 21.502 18.72 21.582 18.736C21.582 19.52 21.446 20.248 21.174 20.92V25.768C21.174 26.792 21.278 27.544 21.486 28.024C21.71 28.488 22.174 28.72 22.878 28.72C23.598 28.72 24.334 28.472 25.086 27.976L24.942 21.16C24.238 21.128 23.574 21.016 22.95 20.824C22.95 20.424 23.006 19.848 23.118 19.096C24.062 18.84 25.678 18.712 27.966 18.712ZM39.5994 19.552L39.6234 20.296C39.6234 21.544 39.5274 22.36 39.3354 22.744C38.8074 22.936 38.0714 23.032 37.1274 23.032L36.3594 20.608C36.1514 20.528 35.8634 20.488 35.4954 20.488C35.1274 20.488 34.8234 20.6 34.5834 20.824C34.3594 21.048 34.2474 21.312 34.2474 21.616C34.2474 21.92 34.3674 22.2 34.6074 22.456C34.8474 22.696 35.0954 22.888 35.3514 23.032C35.6074 23.176 35.9754 23.368 36.4554 23.608C36.9514 23.832 37.3194 24.008 37.5594 24.136C37.8154 24.264 38.1354 24.456 38.5194 24.712C38.9194 24.968 39.2234 25.208 39.4314 25.432C39.9434 26.04 40.1994 26.704 40.1994 27.424C40.1994 28.656 39.7274 29.608 38.7834 30.28C37.8554 30.952 36.7114 31.288 35.3514 31.288C34.6314 31.288 33.8394 31.16 32.9754 30.904C32.1274 30.648 31.4074 30.304 30.8154 29.872C30.8154 28.72 30.9274 27.648 31.1514 26.656C31.7914 26.576 32.3114 26.536 32.7114 26.536C33.1114 26.536 33.3834 26.544 33.5274 26.56L33.8154 28.888C34.2154 29.032 34.6954 29.104 35.2554 29.104C35.8154 29.104 36.2554 28.992 36.5754 28.768C36.9114 28.544 37.0794 28.232 37.0794 27.832C37.0794 27.416 36.8954 27.072 36.5274 26.8C36.1594 26.528 35.6554 26.248 35.0154 25.96C34.3754 25.656 33.8794 25.408 33.5274 25.216C33.1754 25.008 32.7994 24.744 32.3994 24.424C31.5834 23.8 31.1754 23.032 31.1754 22.12C31.1754 20.984 31.5674 20.104 32.3514 19.48C33.1514 18.84 34.2234 18.52 35.5674 18.52C36.9114 18.52 38.2554 18.864 39.5994 19.552ZM46.371 13.168L46.947 13.192C46.947 14.024 46.843 14.752 46.635 15.376C46.603 17.2 46.587 18.568 46.587 19.48C47.099 19.256 47.683 19.04 48.339 18.832C48.995 18.624 49.403 18.52 49.563 18.52C51.195 18.52 52.363 18.888 53.067 19.624C53.787 20.36 54.147 21.52 54.147 23.104C54.147 23.264 54.067 25.128 53.907 28.696L55.779 28.936C55.779 29.624 55.595 30.312 55.227 31H49.251L49.035 29.68C50.107 29.248 50.795 29.016 51.099 28.984C51.067 27.256 51.027 25.728 50.979 24.4C50.931 23.056 50.803 22.168 50.595 21.736C50.387 21.304 50.051 21.088 49.587 21.088C49.139 21.088 48.619 21.144 48.027 21.256C47.451 21.352 47.003 21.472 46.683 21.616L46.419 28.696L48.291 28.912C48.291 29.568 48.107 30.264 47.739 31H41.763L41.547 29.68C42.539 29.312 43.259 29.072 43.707 28.96L43.251 15.64C42.499 15.56 41.867 15.44 41.355 15.28C41.355 14.88 41.411 14.304 41.523 13.552C42.467 13.296 44.083 13.168 46.371 13.168Z" fill="#1A5D1A"/>
<path d="M77.3672 24.9062C77.3047 25.2812 77.1484 25.6094 76.8984 25.8906C76.6484 26.1719 76.3594 26.3984 76.0312 26.5703H76.0078C75.6328 26.7891 75.25 27.0078 74.8594 27.2266C74.4844 27.4453 74.0938 27.6406 73.6875 27.8125C73.2344 28 72.8125 28.2031 72.4219 28.4219C72.0312 28.6406 71.6328 28.8828 71.2266 29.1484L71.1562 29.1953L71.3906 29.3828C71.2969 29.5078 71.1484 29.6094 70.9453 29.6875C70.7422 29.75 70.5391 29.8281 70.3359 29.9219C70.1484 30 69.9922 30.1094 69.8672 30.25C69.7578 30.3906 69.7422 30.5859 69.8203 30.8359C68.9766 31.4453 68.0469 31.8203 67.0312 31.9609C66.0312 32.1016 65.0234 32.1016 64.0078 31.9609C63.5703 31.8984 63.0938 31.8047 62.5781 31.6797C62.0781 31.5547 61.5703 31.4062 61.0547 31.2344C60.5391 31.0781 60.0391 30.8984 59.5547 30.6953C59.0703 30.4922 58.6328 30.2812 58.2422 30.0625C58.1641 30.0156 58.0859 29.9609 58.0078 29.8984C57.9297 29.8203 57.8516 29.7578 57.7734 29.7109L56.4375 28.75L56.3906 28.7734C56.1094 28.9141 55.8906 29.1016 55.7344 29.3359C55.5781 29.5547 55.4531 29.7891 55.3594 30.0391C55.25 30.2891 55.1484 30.5391 55.0547 30.7891C54.9609 31.0391 54.8516 31.25 54.7266 31.4219C54.5859 31.5938 54.4062 31.7109 54.1875 31.7734C53.9688 31.8516 53.6797 31.8359 53.3203 31.7266C53.2734 31.3828 53.2734 31.0391 53.3203 30.6953C53.3672 30.3359 53.4141 29.9844 53.4609 29.6406C53.5078 29.2969 53.5469 28.9688 53.5781 28.6562C53.6094 28.3438 53.5938 28.0547 53.5312 27.7891C53.8281 27.6641 54.0078 27.5 54.0703 27.2969C54.1172 27.0781 54.1484 26.8594 54.1641 26.6406C54.1641 26.4219 54.2031 26.2188 54.2812 26.0312C54.3594 25.8438 54.5703 25.7031 54.9141 25.6094C54.9141 25.2656 54.9688 24.9531 55.0781 24.6719C55.1875 24.3906 55.3047 24.1172 55.4297 23.8516C55.5547 23.5703 55.6641 23.2891 55.7578 23.0078C55.8672 22.7266 55.9141 22.4062 55.8984 22.0469C56.3984 21.3281 56.8438 20.5781 57.2344 19.7969C57.625 19 58 18.2031 58.3594 17.4062C58.7344 16.5625 59.125 15.7266 59.5312 14.8984C59.9375 14.0547 60.3984 13.2734 60.9141 12.5547C61.4453 11.8203 62.0469 11.1641 62.7188 10.5859C63.4062 9.99219 64.2109 9.51562 65.1328 9.15625C65.2266 9.125 65.3516 9.08594 65.5078 9.03906C65.6797 8.97656 65.8594 8.92188 66.0469 8.875C66.2344 8.82812 66.4062 8.78906 66.5625 8.75781C66.7344 8.71094 66.8594 8.6875 66.9375 8.6875C67.0156 8.6875 67.1094 8.70312 67.2188 8.73438C67.3438 8.75 67.4453 8.76562 67.5234 8.78125C67.7734 8.82812 68.0234 8.875 68.2734 8.92188C68.5234 8.95312 68.7578 9.01562 68.9766 9.10938C69.2109 9.1875 69.4141 9.30469 69.5859 9.46094C69.7734 9.61719 69.9219 9.82812 70.0312 10.0938V10.1172C70.0625 10.2422 70.1016 10.3828 70.1484 10.5391C70.2109 10.6797 70.2656 10.8125 70.3125 10.9375C70.4219 11.2969 70.5312 11.7188 70.6406 12.2031C70.7656 12.6875 70.8281 13.125 70.8281 13.5156C70.8281 14.5312 70.6719 15.5234 70.3594 16.4922C70.0469 17.4609 69.6641 18.3906 69.2109 19.2812L69.2344 19.3047C70.0312 20.4766 70.6875 21.7188 71.2031 23.0312C71.7344 24.3281 72 25.6875 72 27.1094C72.4531 27.0312 72.8828 26.8906 73.2891 26.6875C73.6953 26.4844 74.1016 26.2734 74.5078 26.0547C74.9609 25.8203 75.4219 25.6016 75.8906 25.3984C76.375 25.1797 76.8672 25.0156 77.3672 24.9062ZM66.4219 20.3359C66.375 20.2109 66.2969 20.1406 66.1875 20.125C66.0938 20.0938 65.9844 20.0859 65.8594 20.1016C65.7969 20.1172 65.7422 20.125 65.6953 20.125C65.6641 20.1094 65.6172 20.1016 65.5547 20.1016C65.2891 20.0859 65.0625 20.1328 64.875 20.2422C64.6875 20.3359 64.5234 20.4688 64.3828 20.6406C64.2422 20.8125 64.1172 21.0078 64.0078 21.2266C63.8984 21.4297 63.7891 21.625 63.6797 21.8125L63.7734 21.9297C64.0859 21.8672 64.3828 21.7734 64.6641 21.6484C64.9453 21.5234 65.2266 21.3828 65.5078 21.2266C65.6484 21.1484 65.7969 21.0781 65.9531 21.0156C66.1094 20.9531 66.2656 20.8828 66.4219 20.8047V20.3359ZM70.6641 27.0156C70.5547 26.5 70.4453 25.9609 70.3359 25.3984C70.2266 24.8203 70.0859 24.2578 69.9141 23.7109C69.7578 23.1641 69.5469 22.6406 69.2812 22.1406C69.0312 21.6406 68.7109 21.1953 68.3203 20.8047C68.2109 21.0391 68.0469 21.2656 67.8281 21.4844C67.6094 21.7031 67.3594 21.9141 67.0781 22.1172C66.8125 22.3047 66.5391 22.4844 66.2578 22.6562C65.9922 22.8125 65.75 22.9453 65.5312 23.0547C65.2812 23.0391 65 23.0781 64.6875 23.1719C64.375 23.25 64.0625 23.3203 63.75 23.3828C63.4375 23.4297 63.1406 23.4375 62.8594 23.4062C62.5938 23.3594 62.3828 23.1953 62.2266 22.9141V22.8906C62.1328 22.8281 62.0312 22.7812 61.9219 22.75C61.8281 22.7188 61.75 22.6484 61.6875 22.5391C61.6406 22.4297 61.6484 22.3047 61.7109 22.1641C61.7891 22.0234 61.8672 21.8672 61.9453 21.6953C62.0391 21.5234 62.1094 21.3438 62.1562 21.1562C62.2031 20.9688 62.1719 20.7734 62.0625 20.5703C62.1562 20.1172 62.3438 19.8047 62.625 19.6328C62.9062 19.4453 63.2266 19.3203 63.5859 19.2578C63.9609 19.1797 64.3359 19.125 64.7109 19.0938C65.1016 19.0625 65.4453 18.9688 65.7422 18.8125C66.0391 18.9375 66.3828 19.0078 66.7734 19.0234C67.1641 19.0234 67.5078 18.9453 67.8047 18.7891L68.25 17.8047C68.4844 17.3203 68.6875 16.875 68.8594 16.4688C69.0469 16.0469 69.1875 15.6328 69.2812 15.2266C69.3906 14.8203 69.4531 14.3984 69.4688 13.9609C69.5 13.5078 69.4766 13 69.3984 12.4375V12.3906H69.375C69.1562 12.2812 69.0391 12.1328 69.0234 11.9453C69.0078 11.7578 69 11.5547 69 11.3359C68.875 11.1328 68.7188 10.9141 68.5312 10.6797C68.3438 10.4453 68.1406 10.2812 67.9219 10.1875C67.7344 10.1094 67.5156 10.0547 67.2656 10.0234C67.0156 9.99219 66.7578 9.98438 66.4922 10C66.2422 10 65.9922 10.0312 65.7422 10.0938C65.5078 10.1562 65.2969 10.2422 65.1094 10.3516L65.0625 10.3984C64.9375 10.6016 64.8047 10.7578 64.6641 10.8672C64.5234 10.9609 64.3516 11.0625 64.1484 11.1719C64.0078 11.25 63.8516 11.3359 63.6797 11.4297C63.5234 11.5078 63.375 11.6016 63.2344 11.7109C63.1094 11.8047 63 11.9219 62.9062 12.0625C62.8125 12.2031 62.7656 12.375 62.7656 12.5781V13.4453C62.7656 13.4609 62.7422 13.5156 62.6953 13.6094C62.6641 13.7031 62.6172 13.8047 62.5547 13.9141C62.5078 14.0234 62.4609 14.1328 62.4141 14.2422C62.3672 14.3359 62.3359 14.3984 62.3203 14.4297C62.1016 14.8984 61.875 15.3594 61.6406 15.8125C61.4062 16.2656 61.125 16.6953 60.7969 17.1016V17.125C60.6094 17.6406 60.4141 18.1562 60.2109 18.6719C60.0234 19.1875 59.8438 19.7109 59.6719 20.2422C59.2812 21.3984 58.875 22.5469 58.4531 23.6875C58.0312 24.8281 57.4766 25.9141 56.7891 26.9453C57.2891 27.2734 57.7969 27.6172 58.3125 27.9766C58.8281 28.3203 59.3672 28.5938 59.9297 28.7969C60.1797 28.875 60.4297 28.9531 60.6797 29.0312C60.9297 29.1094 61.1641 29.2109 61.3828 29.3359L61.4062 29.3594C61.6562 29.3594 61.9219 29.3984 62.2031 29.4766C62.4844 29.5391 62.7656 29.6016 63.0469 29.6641C63.3281 29.7109 63.6016 29.7422 63.8672 29.7578C64.1484 29.7578 64.3984 29.6875 64.6172 29.5469C64.7422 29.5938 64.8516 29.5938 64.9453 29.5469C65.0547 29.5 65.1562 29.4609 65.25 29.4297C65.3438 29.3828 65.4297 29.3672 65.5078 29.3828C65.6016 29.3828 65.6875 29.4531 65.7656 29.5938C66.0469 29.3906 66.3359 29.2578 66.6328 29.1953C66.9453 29.1328 67.2656 29.0703 67.5938 29.0078C67.7656 28.9766 67.9297 28.9453 68.0859 28.9141C68.2578 28.8672 68.4297 28.8281 68.6016 28.7969H68.625L68.6484 28.7734C68.7734 28.6016 68.9062 28.4844 69.0469 28.4219C69.1875 28.3594 69.3438 28.2891 69.5156 28.2109C69.6406 28.1641 69.7656 28.1094 69.8906 28.0469C70.0312 27.9844 70.1484 27.9141 70.2422 27.8359C70.3359 27.7422 70.3828 27.6406 70.3828 27.5312C70.3984 27.4062 70.3516 27.2578 70.2422 27.0859L70.3125 27.0625C70.3906 26.9844 70.4453 26.9531 70.4766 26.9688C70.5234 26.9688 70.5859 26.9844 70.6641 27.0156ZM80.4548 18.712C80.7588 18.712 80.9508 18.72 81.0308 18.736C81.0308 19.52 80.8948 20.248 80.6228 20.92C80.5588 24.376 80.5188 26.968 80.5028 28.696L82.3748 28.912C82.3748 29.568 82.1908 30.264 81.8228 31H75.8468L75.6308 29.68C76.6228 29.312 77.3428 29.072 77.7908 28.96L77.5268 21.184C76.5828 21.088 75.8868 20.968 75.4388 20.824C75.4388 20.424 75.4948 19.848 75.6068 19.096C76.5508 18.84 78.1668 18.712 80.4548 18.712ZM80.4548 14.176C80.5988 14.896 80.6708 15.448 80.6708 15.832C80.6708 16.2 80.6388 16.616 80.5748 17.08C79.9348 17.224 79.3908 17.296 78.9428 17.296C78.5108 17.296 77.9828 17.272 77.3588 17.224C77.2148 16.504 77.1428 15.96 77.1428 15.592C77.1428 15.208 77.1748 14.784 77.2388 14.32C77.8788 14.176 78.4148 14.104 78.8468 14.104C79.2948 14.104 79.8308 14.128 80.4548 14.176ZM85.7496 31.288L85.2216 31.264C85.1256 31.088 84.9976 30.76 84.8376 30.28C84.6776 29.8 84.5896 29.44 84.5736 29.2C84.4936 27.616 84.4056 24.872 84.3096 20.968H82.6296L82.7016 19.6C83.0696 19.344 83.5096 19.112 84.0216 18.904L85.9656 15.832C86.5896 15.896 87.0776 16.064 87.4296 16.336L87.4056 18.616C88.4136 18.648 89.3496 18.744 90.2136 18.904C90.2136 19.544 90.0136 20.232 89.6136 20.968H87.3816C87.3176 24.328 87.2776 26.848 87.2616 28.528C87.9016 28.592 88.7736 28.776 89.8776 29.08L89.8536 30.328C89.5816 30.504 88.9736 30.712 88.0296 30.952C87.1016 31.176 86.3416 31.288 85.7496 31.288ZM97.5733 28.936C98.1173 28.936 99.2213 28.56 100.885 27.808C101.237 28.32 101.501 28.912 101.677 29.584C100.797 30.128 99.9333 30.552 99.0853 30.856C98.2533 31.144 97.6613 31.288 97.3093 31.288C95.3733 31.288 93.9013 30.752 92.8933 29.68C91.9013 28.608 91.4053 27.088 91.4053 25.12C91.4053 23.136 91.9013 21.544 92.8933 20.344C93.8853 19.128 95.3573 18.52 97.3093 18.52C98.8613 18.52 100.045 19.024 100.861 20.032C101.677 21.04 102.085 22.352 102.085 23.968C102.085 24.304 101.893 24.688 101.509 25.12L94.5973 25C94.6293 26.28 94.8693 27.256 95.3173 27.928C95.7653 28.6 96.5173 28.936 97.5733 28.936ZM97.0933 20.512C96.4853 20.512 95.9173 20.632 95.3893 20.872C95.0213 21.64 94.7893 22.352 94.6933 23.008C95.9413 22.96 97.3573 22.928 98.9413 22.912C98.8613 21.312 98.2453 20.512 97.0933 20.512Z" fill="#F1C93B"/>
<path fill-rule="evenodd" clip-rule="evenodd" d="M132.915 6.06894C133.243 5.19073 132.499 5.45708 132.499 5.45708C132.499 5.45708 127.54 12.301 126.851 11.4623C126.162 10.6237 131.707 4.06428 131.05 2.83854C130.443 1.69599 125.572 9.85284 124.987 8.85655C124.407 7.86227 129.158 0.723175 129.158 0.723175C129.158 0.723175 129.339 -0.351613 128.733 0.119361C121.263 5.8945 120.311 11.2785 120.311 11.2785C120.311 11.2785 120.054 12.3271 120.612 13.1376C120.667 13.208 106.984 32.7682 105.152 35.4089C104.261 36.689 107.531 41.3135 108.417 40.0335C110.249 37.3928 123.828 17.6903 123.877 17.7635C124.44 18.5719 125.168 18.2009 125.168 18.2009C125.168 18.2009 128.907 16.8289 132.915 6.06894Z" fill="#F1C93B" fill-opacity="0.78"/>
<path fill-rule="evenodd" clip-rule="evenodd" d="M119 26.0241C122.641 31.2706 128.78 40.1124 128.78 40.1124C128.78 40.1124 131.46 38.8518 131.837 35.5979L122.096 21.5653C121.188 22.8709 120.134 24.3885 119 26.0241Z" fill="#F1C93B" fill-opacity="0.78"/>
<path fill-rule="evenodd" clip-rule="evenodd" d="M114.22 21.2877C115.667 19.21 117.016 17.267 118.134 15.6522L107.547 0.401833C107.547 0.401833 107.356 0.113344 106.934 0.721854C106.097 1.92076 104.479 9.55967 111.342 19.4414C112.429 21.0087 113.376 21.226 114.22 21.2877Z" fill="#F1C93B" fill-opacity="0.78"/>
</svg>
